<svg version="1.1" id="Layer_1" xmlns="http://www.w3.org/2000/svg" xmlns:xlink="http://www.w3.org/1999/xlink" x="0px" y="0px"
	 width="100%" viewBox="0 0 1334 1000" enable-background="new 0 0 1334 1000" xml:space="preserve">
<path fill="#B4BED3" opacity="1.000000" stroke="none" 
	d="
M706.000000,1001.000000 
	C470.666656,1001.000000 235.833328,1001.000000 1.000000,1001.000000 
	C1.000000,667.666687 1.000000,334.333344 1.000000,1.000000 
	C445.666656,1.000000 890.333313,1.000000 1335.000000,1.000000 
	C1335.000000,334.333344 1335.000000,667.666687 1335.000000,1001.000000 
	C1125.500000,1001.000000 916.000000,1001.000000 706.000000,1001.000000 
M365.245941,281.885742 
	C363.893158,282.330841 361.553864,282.495697 361.335876,283.263123 
	C358.163330,294.432281 355.065155,305.633392 352.440399,316.940918 
	C351.606171,320.534821 352.344208,324.470978 352.121338,328.236206 
	C351.916107,331.703339 351.050323,335.151123 351.048676,338.607697 
	C350.990417,459.576630 350.949097,580.545654 351.091675,701.514404 
	C351.103760,711.758667 352.408600,722.001465 353.119568,732.244446 
	C353.142426,732.574036 353.217316,732.904663 353.306030,733.224243 
	C357.216675,747.310608 360.632172,761.489136 368.077637,774.405640 
	C379.038086,793.419922 394.015717,808.379517 412.324371,820.080811 
	C433.933960,833.891602 458.566986,838.331299 483.342163,838.687317 
	C547.978882,839.616028 612.642151,839.466797 677.286682,838.868652 
	C741.862488,838.271179 806.478333,841.469666 871.015320,837.002808 
	C886.118408,835.957520 900.629456,832.275146 914.177063,825.713318 
	C928.323303,818.861572 940.888794,809.610962 951.616150,797.934204 
	C971.807434,775.955688 983.205994,750.383789 984.021790,720.344849 
	C984.062134,718.861450 984.360779,717.384094 984.556152,715.906128 
	C985.032104,712.305481 985.937012,708.706421 985.939270,705.106262 
	C986.013000,588.969482 985.973877,472.832581 986.027344,356.695709 
	C986.035645,338.657654 985.658752,320.655029 981.839050,302.955292 
	C980.404785,296.309265 978.434204,289.714752 975.961365,283.388733 
	C974.974670,280.864655 971.969666,279.129578 969.448303,276.473877 
	C969.267822,276.008759 969.070862,275.549286 968.909180,275.077698 
	C951.647827,224.712524 911.403931,196.006836 858.033264,196.005753 
	C732.428650,196.003174 606.824036,195.991440 481.219421,196.044434 
	C474.911194,196.047089 468.559967,196.258270 462.302490,196.996872 
	C431.546509,200.627228 406.538605,214.717758 387.107025,238.813614 
	C376.777954,251.621994 370.410309,266.343658 365.245941,281.885742 
z"/>
<path fill="#FFFFFF" opacity="1.000000" stroke="none" 
	d="
M365.924561,282.002808 
	C370.410309,266.343658 376.777954,251.621994 387.107025,238.813614 
	C406.538605,214.717758 431.546509,200.627228 462.302490,196.996872 
	C468.559967,196.258270 474.911194,196.047089 481.219421,196.044434 
	C606.824036,195.991440 732.428650,196.003174 858.033264,196.005753 
	C911.403931,196.006836 951.647827,224.712524 968.909180,275.077698 
	C969.070862,275.549286 969.267822,276.008759 969.696106,277.085724 
	C970.040405,278.129913 970.136963,278.562256 970.220093,279.275848 
	C970.457947,280.044250 970.709351,280.531403 970.977905,281.422852 
	C971.998657,291.903137 973.859863,301.977875 973.875671,312.055481 
	C974.073730,437.867645 974.016785,563.680237 973.962708,689.492737 
	C973.960266,695.295105 973.577515,701.117737 973.013672,706.895935 
	C970.477051,732.890381 959.663208,755.215393 941.494934,773.658142 
	C919.905090,795.574158 893.427124,806.918762 862.483398,806.958252 
	C796.661072,807.042236 730.838623,806.986328 665.016174,806.986389 
	C601.526672,806.986389 538.037170,806.924988 474.547791,807.020630 
	C455.792969,807.048889 438.219849,802.043274 421.724884,793.883911 
	C399.311371,782.796997 383.876556,764.490845 372.911041,742.337402 
	C365.324829,727.011108 362.941772,710.578857 362.952728,693.587646 
	C363.034210,567.108582 363.023071,440.629517 362.944550,314.150543 
	C362.937805,303.310638 363.205048,292.559845 365.924561,282.002808 
M456.797455,507.918762 
	C457.314667,528.535767 460.595551,548.655945 467.616760,568.909546 
	C468.298828,571.106689 468.877258,573.342529 469.679352,575.494934 
	C476.094238,592.708191 485.047272,608.599854 495.023315,624.715210 
	C496.789062,628.454468 498.112427,632.491028 500.393188,635.884094 
	C513.973022,656.086426 531.123901,673.008362 550.154785,687.957703 
	C564.340942,699.101379 580.039368,707.927185 596.738770,714.841492 
	C615.261902,722.510864 634.300415,728.945190 654.290161,730.669739 
	C669.613647,731.991760 685.138794,730.924683 700.573608,731.021362 
	C720.885742,731.148499 740.032532,725.715637 758.863098,718.857422 
	C797.139282,704.917297 829.040283,681.776245 854.772644,650.444397 
	C872.122620,629.318970 885.550537,605.593140 893.519531,579.378296 
	C901.978760,551.550842 906.083679,523.028748 903.150330,493.733337 
	C901.154419,473.799835 898.087036,454.154358 890.920349,435.368958 
	C878.952942,403.999878 861.396118,376.220123 837.242432,352.741272 
	C826.230530,342.036987 814.109131,332.810669 801.232666,324.428070 
	C778.754028,309.794403 754.229736,300.297302 728.220947,294.436829 
	C725.018372,293.715210 721.418274,294.757538 717.192200,295.004730 
	C710.166382,293.704651 703.185059,292.049316 696.107361,291.163971 
	C658.855225,286.504059 622.742920,291.200073 588.009094,305.423523 
	C571.981934,311.986633 556.693787,320.051117 542.503723,331.285950 
	C539.552063,333.704010 536.649780,336.185303 533.640564,338.529510 
	C518.289062,350.488403 505.440765,364.746033 494.100372,381.263153 
	C488.008789,392.158569 481.917236,403.053986 475.329498,414.423462 
	C472.654633,421.621033 469.979797,428.818604 466.912109,436.680939 
	C464.463531,446.745636 462.014954,456.810364 459.114136,467.520508 
	C458.978546,469.000916 458.790955,470.478699 458.715637,471.962189 
	C458.122375,483.641541 457.550568,495.322021 456.797455,507.918762 
z"/>
<path fill="#AFB9D0" opacity="1.000000" stroke="none" 
	d="
M365.585266,281.944275 
	C363.205048,292.559845 362.937805,303.310638 362.944550,314.150543 
	C363.023071,440.629517 363.034210,567.108582 362.952728,693.587646 
	C362.941772,710.578857 365.324829,727.011108 372.911041,742.337402 
	C383.876556,764.490845 399.311371,782.796997 421.724884,793.883911 
	C438.219849,802.043274 455.792969,807.048889 474.547791,807.020630 
	C538.037170,806.924988 601.526672,806.986389 665.016174,806.986389 
	C730.838623,806.986328 796.661072,807.042236 862.483398,806.958252 
	C893.427124,806.918762 919.905090,795.574158 941.494934,773.658142 
	C959.663208,755.215393 970.477051,732.890381 973.013672,706.895935 
	C973.577515,701.117737 973.960266,695.295105 973.962708,689.492737 
	C974.016785,563.680237 974.073730,437.867645 973.875671,312.055481 
	C973.859863,301.977875 971.998657,291.903137 971.150513,281.244385 
	C970.948425,280.105988 970.590942,279.550323 970.233521,278.994629 
	C970.136963,278.562256 970.040405,278.129913 969.913696,277.366455 
	C971.969666,279.129578 974.974670,280.864655 975.961365,283.388733 
	C978.434204,289.714752 980.404785,296.309265 981.839050,302.955292 
	C985.658752,320.655029 986.035645,338.657654 986.027344,356.695709 
	C985.973877,472.832581 986.013000,588.969482 985.939270,705.106262 
	C985.937012,708.706421 985.032104,712.305481 984.556152,715.906128 
	C984.360779,717.384094 984.062134,718.861450 984.021790,720.344849 
	C983.205994,750.383789 971.807434,775.955688 951.616150,797.934204 
	C940.888794,809.610962 928.323303,818.861572 914.177063,825.713318 
	C900.629456,832.275146 886.118408,835.957520 871.015320,837.002808 
	C806.478333,841.469666 741.862488,838.271179 677.286682,838.868652 
	C612.642151,839.466797 547.978882,839.616028 483.342163,838.687317 
	C458.566986,838.331299 433.933960,833.891602 412.324371,820.080811 
	C394.015717,808.379517 379.038086,793.419922 368.077637,774.405640 
	C360.632172,761.489136 357.216675,747.310608 353.306030,733.224243 
	C353.217316,732.904663 353.142426,732.574036 353.119568,732.244446 
	C352.408600,722.001465 351.103760,711.758667 351.091675,701.514404 
	C350.949097,580.545654 350.990417,459.576630 351.048676,338.607697 
	C351.050323,335.151123 351.916107,331.703339 352.121338,328.236206 
	C352.344208,324.470978 351.606171,320.534821 352.440399,316.940918 
	C355.065155,305.633392 358.163330,294.432281 361.335876,283.263123 
	C361.553864,282.495697 363.893158,282.330841 365.585266,281.944275 
z"/>
<path fill="#6D3EB7" opacity="1.000000" stroke="none" 
	d="
M495.015839,623.958252 
	C485.047272,608.599854 476.094238,592.708191 469.679352,575.494934 
	C468.877258,573.342529 468.298828,571.106689 468.111755,568.483276 
	C508.146881,568.037781 547.687073,568.034912 587.227051,567.943176 
	C588.912231,567.939270 590.595459,567.112854 592.279602,566.669556 
	C591.770813,564.989990 591.381714,563.260010 590.705444,561.650818 
	C590.337036,560.774109 589.428528,560.139771 588.853821,559.331909 
	C585.225464,554.231506 581.622253,549.113098 578.347656,544.061951 
	C583.256104,548.433777 588.041077,552.541870 592.359863,557.092346 
	C606.163452,571.636719 619.609985,586.523865 633.569214,600.915039 
	C640.568909,608.131409 649.703735,612.450500 659.724304,610.597229 
	C677.518127,607.306519 689.876587,593.710999 687.887573,573.845154 
	C687.753235,572.503479 686.315002,571.292358 685.372864,569.609680 
	C684.029724,564.845032 682.796875,560.491150 681.954773,556.120239 
	C684.753540,558.369690 687.715027,560.281921 689.443726,562.983093 
	C692.244751,567.359924 695.485535,569.140808 700.855469,569.122803 
	C757.110352,568.934326 813.366211,569.020874 869.578674,569.428101 
	C862.015442,592.305176 851.116272,612.955750 836.034302,631.025269 
	C834.095642,630.086304 832.304749,629.069458 830.513245,629.068176 
	C722.420532,628.992676 614.327759,628.993103 506.234985,629.063049 
	C504.381348,629.064270 502.528320,630.000061 500.397430,630.304260 
	C498.418549,628.058655 496.717194,626.008423 495.015839,623.958252 
z"/>
<path fill="#8252CF" opacity="1.000000" stroke="none" 
	d="
M494.610046,380.867981 
	C505.440765,364.746033 518.289062,350.488403 533.640564,338.529510 
	C536.649780,336.185303 539.552063,333.704010 543.282593,331.161011 
	C623.651184,331.024475 703.240967,331.012909 782.830750,331.000824 
	C784.329285,331.000580 785.918579,331.304626 787.300720,330.901550 
	C788.678406,330.499695 789.848328,329.385437 791.435791,328.713928 
	C801.921326,337.529938 812.080383,346.215485 822.273071,355.240173 
	C823.293335,356.868805 824.243774,358.187836 825.272400,359.442810 
	C830.884521,366.289612 836.515991,373.120605 841.663452,379.967773 
	C733.123779,379.985687 625.061523,379.975739 516.999207,380.037262 
	C509.536011,380.041534 502.073090,380.578674 494.610046,380.867981 
z"/>
<path fill="#7D4DCD" opacity="1.000000" stroke="none" 
	d="
M494.355225,381.065582 
	C502.073090,380.578674 509.536011,380.041534 516.999207,380.037262 
	C625.061523,379.975739 733.123779,379.985687 841.927002,380.169067 
	C848.510010,390.553314 854.352112,400.747070 859.713623,410.954742 
	C737.000854,410.979095 614.768799,410.987274 492.536774,411.006989 
	C486.802734,411.007935 480.903259,410.174286 475.825684,413.949402 
	C481.917236,403.053986 488.008789,392.158569 494.355225,381.065582 
z"/>
<path fill="#7441C9" opacity="1.000000" stroke="none" 
	d="
M459.566376,466.875061 
	C462.014954,456.810364 464.463531,446.745636 467.514954,436.339874 
	C472.078369,435.666260 476.038727,435.046112 479.999512,435.043549 
	C565.729492,434.987946 651.459595,435.044281 737.189270,434.862274 
	C741.092407,434.854004 744.970032,432.731293 748.899292,431.752960 
	C751.655090,431.066772 754.478516,430.652283 757.119263,430.421692 
	C751.242432,435.967743 746.723633,441.892334 745.684875,450.097687 
	C744.555908,451.748016 743.109070,453.297821 743.121887,454.835480 
	C743.174988,461.225647 743.668274,467.612152 744.004456,474.405792 
	C745.407654,484.536835 745.146118,484.165192 735.205811,482.770813 
	C725.578064,481.420319 715.572998,480.435181 706.008972,481.583160 
	C695.614807,482.830872 685.335571,484.192688 674.838928,484.049164 
	C660.203796,483.849121 645.555969,483.712830 630.928955,484.111023 
	C622.764343,484.333252 615.518066,482.855957 608.965210,477.777618 
	C607.447632,476.601532 604.918701,476.730377 602.557251,476.097473 
	C596.955505,471.743256 592.122986,466.651245 586.238281,463.566772 
	C577.259583,458.860687 567.932251,461.193604 558.792725,464.931610 
	C555.796936,465.029663 553.064453,465.327301 550.351868,465.752563 
	C548.229126,466.085358 546.131714,466.939087 544.022156,466.942200 
	C515.870300,466.983551 487.718323,466.915710 459.566376,466.875061 
z"/>
<path fill="#7947CB" opacity="1.000000" stroke="none" 
	d="
M757.271790,430.116455 
	C754.478516,430.652283 751.655090,431.066772 748.899292,431.752960 
	C744.970032,432.731293 741.092407,434.854004 737.189270,434.862274 
	C651.459595,435.044281 565.729492,434.987946 479.999512,435.043549 
	C476.038727,435.046112 472.078369,435.666260 467.711365,436.007507 
	C469.979797,428.818604 472.654633,421.621033 475.577576,414.186432 
	C480.903259,410.174286 486.802734,411.007935 492.536774,411.006989 
	C614.768799,410.987274 737.000854,410.979095 859.956970,411.195618 
	C864.139404,420.613403 867.597717,429.804199 870.624634,438.991241 
	C865.082336,438.658722 859.974365,438.111176 854.860168,438.045929 
	C843.578430,437.902008 832.293457,437.981476 821.009949,438.008118 
	C813.454834,438.025940 805.672424,439.214752 799.941406,432.177185 
	C799.140808,431.194092 796.540955,428.480286 794.563599,432.163147 
	C786.228210,427.007904 777.817261,423.561859 768.145752,426.174988 
	C764.436829,427.177063 760.891602,428.784760 757.271790,430.116455 
z"/>
<path fill="#F3F2F3" opacity="1.000000" stroke="none" 
	d="
M822.239441,354.901062 
	C812.080383,346.215485 801.921326,337.529938 791.247925,328.456909 
	C774.684692,316.832703 757.492798,307.798431 738.932861,301.478088 
	C732.020325,299.124146 724.982849,297.136902 718.002380,294.982452 
	C721.418274,294.757538 725.018372,293.715210 728.220947,294.436829 
	C754.229736,300.297302 778.754028,309.794403 801.232666,324.428070 
	C814.109131,332.810669 826.230530,342.036987 837.242432,352.741272 
	C861.396118,376.220123 878.952942,403.999878 890.920349,435.368958 
	C898.087036,454.154358 901.154419,473.799835 903.150330,493.733337 
	C906.083679,523.028748 901.978760,551.550842 893.519531,579.378296 
	C885.550537,605.593140 872.122620,629.318970 854.772644,650.444397 
	C829.040283,681.776245 797.139282,704.917297 758.863098,718.857422 
	C740.032532,725.715637 720.885742,731.148499 700.573608,731.021362 
	C685.138794,730.924683 669.613647,731.991760 654.290161,730.669739 
	C634.300415,728.945190 615.261902,722.510864 596.738770,714.841492 
	C580.039368,707.927185 564.340942,699.101379 550.154785,687.957703 
	C531.123901,673.008362 513.973022,656.086426 500.393188,635.884094 
	C498.112427,632.491028 496.789062,628.454468 495.019592,624.336731 
	C496.717194,626.008423 498.418549,628.058655 500.501709,630.617310 
	C507.620056,638.578918 514.356506,646.031982 521.259888,653.789551 
	C533.611877,666.142090 546.995667,676.614441 562.280518,685.163208 
	C572.026978,690.050903 581.491272,694.734009 591.048340,699.740845 
	C591.443054,700.456787 591.665100,701.062561 592.058594,701.209839 
	C604.479797,705.858032 616.736938,711.055054 629.401855,714.911316 
	C643.081543,719.076538 657.148499,721.637512 671.664246,721.104431 
	C684.078735,720.648499 696.650635,721.976624 708.915100,720.517090 
	C727.776001,718.272461 746.015320,712.896667 763.559021,705.354492 
	C797.862305,690.607361 826.988098,669.052734 849.894287,639.476990 
	C868.810913,615.052490 881.924377,587.785889 888.356384,557.465454 
	C892.398743,538.409729 895.385559,519.222351 892.980164,499.671448 
	C891.340576,486.344299 890.329712,472.815521 887.192993,459.822266 
	C880.359131,431.513947 867.964478,405.638641 849.821533,382.658264 
	C841.678345,372.343811 833.594543,362.007202 822.239441,354.901062 
z"/>
<path fill="#6D3AC1" opacity="1.000000" stroke="none" 
	d="
M578.010803,544.000671 
	C581.622253,549.113098 585.225464,554.231506 588.853821,559.331909 
	C589.428528,560.139771 590.337036,560.774109 590.705444,561.650818 
	C591.381714,563.260010 591.770813,564.989990 592.279602,566.669556 
	C590.595459,567.112854 588.912231,567.939270 587.227051,567.943176 
	C547.687073,568.034912 508.146881,568.037781 468.111267,568.080505 
	C460.595551,548.655945 457.314667,528.535767 457.248474,507.390198 
	C461.262390,505.908203 464.815430,504.174957 468.389771,504.129730 
	C489.170380,503.866882 509.956329,503.947021 530.739746,504.049103 
	C534.580139,504.067963 536.509277,503.354828 537.323486,498.827332 
	C538.366272,493.028900 540.823975,487.416351 543.223816,481.966675 
	C544.097656,479.982361 546.556274,478.695953 548.256531,477.488220 
	C545.254517,484.954926 545.096680,492.158325 547.055969,499.830078 
	C548.431335,504.776245 548.850891,510.224854 551.662354,513.783875 
	C559.936462,524.257996 569.159302,533.982666 578.010803,544.000671 
z"/>
<path fill="#895CD3" opacity="1.000000" stroke="none" 
	d="
M717.597290,294.993591 
	C724.982849,297.136902 732.020325,299.124146 738.932861,301.478088 
	C757.492798,307.798431 774.684692,316.832703 790.921509,328.326508 
	C789.848328,329.385437 788.678406,330.499695 787.300720,330.901550 
	C785.918579,331.304626 784.329285,331.000580 782.830750,331.000824 
	C703.240967,331.012909 623.651184,331.024475 543.602783,331.044403 
	C556.693787,320.051117 571.981934,311.986633 588.009094,305.423523 
	C622.742920,291.200073 658.855225,286.504059 696.107361,291.163971 
	C703.185059,292.049316 710.166382,293.704651 717.597290,294.993591 
z"/>
<path fill="#6F3AC6" opacity="1.000000" stroke="none" 
	d="
M548.291870,477.091125 
	C546.556274,478.695953 544.097656,479.982361 543.223816,481.966675 
	C540.823975,487.416351 538.366272,493.028900 537.323486,498.827332 
	C536.509277,503.354828 534.580139,504.067963 530.739746,504.049103 
	C509.956329,503.947021 489.170380,503.866882 468.389771,504.129730 
	C464.815430,504.174957 461.262390,505.908203 457.335815,506.931885 
	C457.550568,495.322021 458.122375,483.641541 458.715637,471.962189 
	C458.790955,470.478699 458.978546,469.000916 459.340271,467.197784 
	C487.718323,466.915710 515.870300,466.983551 544.022156,466.942200 
	C546.131714,466.939087 548.229126,466.085358 550.351868,465.752563 
	C553.064453,465.327301 555.796936,465.029663 558.623169,465.216461 
	C555.247559,469.534332 551.769714,473.312744 548.291870,477.091125 
z"/>
<path fill="#B4BED3" opacity="1.000000" stroke="none" 
	d="
M970.220032,279.275848 
	C970.590942,279.550323 970.948425,280.105988 971.133301,280.840118 
	C970.709351,280.531403 970.457947,280.044250 970.220032,279.275848 
z"/>
<path fill="#6D3AC1" opacity="1.000000" stroke="none" 
	d="
M869.621765,569.031311 
	C813.366211,569.020874 757.110352,568.934326 700.855469,569.122803 
	C695.485535,569.140808 692.244751,567.359924 689.443726,562.983093 
	C687.715027,560.281921 684.753540,558.369690 681.713623,555.912476 
	C678.423096,552.763489 675.880249,549.690796 673.086914,546.865906 
	C656.373108,529.963501 639.601624,513.118225 623.076294,496.026672 
	C625.368347,496.866211 627.800781,497.538300 629.439758,499.063202 
	C640.502441,509.355774 652.118896,518.029907 668.593323,515.039062 
	C670.205444,514.746338 671.931030,514.858582 673.578735,515.027588 
	C676.910767,515.369446 678.682129,513.784912 680.135925,510.897125 
	C682.523560,506.154114 685.135620,501.485779 688.116516,497.101074 
	C689.127441,495.613983 691.539978,495.079681 693.166504,494.438049 
	C691.352661,499.178558 689.684448,503.591003 687.656860,508.114258 
	C683.180603,511.634094 685.131958,516.299438 685.104126,520.355225 
	C684.973206,539.437988 704.882874,554.995239 723.498230,550.624939 
	C740.906494,546.538025 751.692383,530.518066 748.788635,512.754578 
	C748.511719,511.060364 746.915894,509.581726 745.757874,507.672089 
	C743.747314,502.894135 741.911194,498.447083 740.440369,494.017700 
	C742.769714,495.384644 745.256287,496.350983 746.585938,498.165192 
	C749.126160,501.631378 751.371460,505.424347 753.063965,509.371246 
	C754.898254,513.648987 757.470398,515.134766 762.205383,515.112183 
	C801.521851,514.924683 840.839783,515.021118 880.214111,515.479980 
	C879.178162,534.121887 875.794617,551.856323 869.621765,569.031311 
z"/>
<path fill="#CECAFE" opacity="1.000000" stroke="none" 
	d="
M622.849487,496.253784 
	C639.601624,513.118225 656.373108,529.963501 673.086914,546.865906 
	C675.880249,549.690796 678.423096,552.763489 681.322876,555.929504 
	C682.796875,560.491150 684.029724,564.845032 685.288391,570.041687 
	C685.133789,578.466248 682.864807,585.285706 677.657043,590.907593 
	C665.957458,603.537415 647.420532,603.638000 634.589966,590.888611 
	C609.439941,565.897827 584.344543,540.849731 559.479797,515.576172 
	C554.781250,510.800385 551.258484,504.867889 547.193176,499.469086 
	C545.096680,492.158325 545.254517,484.954926 548.256592,477.488220 
	C551.769714,473.312744 555.247559,469.534332 558.894958,465.471069 
	C567.932251,461.193604 577.259583,458.860687 586.238281,463.566772 
	C592.122986,466.651245 596.955505,471.743256 602.721130,476.380127 
	C609.738525,483.300659 616.294006,489.777222 622.849487,496.253784 
z"/>
<path fill="#673CAD" opacity="1.000000" stroke="none" 
	d="
M521.093018,653.485046 
	C514.356506,646.031982 507.620056,638.578918 500.779266,630.812744 
	C502.528320,630.000061 504.381348,629.064270 506.234985,629.063049 
	C614.327759,628.993103 722.420532,628.992676 830.513245,629.068176 
	C832.304749,629.069458 834.095642,630.086304 835.913208,631.326050 
	C834.301270,633.862549 832.683105,635.720703 831.020569,637.538269 
	C826.243225,642.761230 821.447998,647.967896 816.199097,653.088257 
	C813.111206,652.663757 810.484131,652.043213 807.856689,652.041809 
	C715.365967,651.991882 622.875183,651.985657 530.384521,652.062561 
	C527.286926,652.065125 524.190186,652.990051 521.093018,653.485046 
z"/>
<path fill="#DCDBDC" opacity="1.000000" stroke="none" 
	d="
M816.659790,653.180969 
	C821.447998,647.967896 826.243225,642.761230 831.020569,637.538269 
	C832.683105,635.720703 834.301270,633.862549 836.060791,631.722168 
	C851.116272,612.955750 862.015442,592.305176 869.578674,569.428101 
	C875.794617,551.856323 879.178162,534.121887 880.381592,515.105957 
	C880.301514,504.190338 880.110718,494.096893 879.971313,483.576782 
	C877.033752,468.431732 874.044922,453.713379 871.056091,438.995026 
	C867.597717,429.804199 864.139404,420.613403 860.437622,411.181702 
	C854.352112,400.747070 848.510010,390.553314 842.404358,380.158295 
	C836.515991,373.120605 830.884521,366.289612 825.272400,359.442810 
	C824.243774,358.187836 823.293335,356.868805 822.273071,355.240204 
	C833.594543,362.007202 841.678345,372.343811 849.821533,382.658264 
	C867.964478,405.638641 880.359131,431.513947 887.192993,459.822266 
	C890.329712,472.815521 891.340576,486.344299 892.980164,499.671448 
	C895.385559,519.222351 892.398743,538.409729 888.356384,557.465454 
	C881.924377,587.785889 868.810913,615.052490 849.894287,639.476990 
	C826.988098,669.052734 797.862305,690.607361 763.559021,705.354492 
	C746.015320,712.896667 727.776001,718.272461 708.915100,720.517090 
	C696.650635,721.976624 684.078735,720.648499 671.664246,721.104431 
	C657.148499,721.637512 643.081543,719.076538 629.401855,714.911316 
	C616.736938,711.055054 604.479797,705.858032 592.058594,701.209839 
	C591.665100,701.062561 591.443054,700.456787 591.417725,699.758667 
	C592.956055,699.872253 594.226929,700.266479 595.478210,700.715149 
	C644.841553,718.416016 694.239441,718.447388 743.341370,700.100098 
	C754.373840,695.977844 764.551514,689.568054 775.488037,684.201660 
	C780.491821,681.231140 785.396729,678.611389 789.713440,675.238708 
	C798.858154,668.094177 807.696045,660.557129 816.659790,653.180969 
z"/>
<path fill="#673CAD" opacity="1.000000" stroke="none" 
	d="
M547.055969,499.830078 
	C551.258484,504.867889 554.781250,510.800385 559.479797,515.576172 
	C584.344543,540.849731 609.439941,565.897827 634.589966,590.888611 
	C647.420532,603.638000 665.957458,603.537415 677.657043,590.907593 
	C682.864807,585.285706 685.133789,578.466248 685.398621,570.452515 
	C686.315002,571.292358 687.753235,572.503479 687.887573,573.845154 
	C689.876587,593.710999 677.518127,607.306519 659.724304,610.597229 
	C649.703735,612.450500 640.568909,608.131409 633.569214,600.915039 
	C619.609985,586.523865 606.163452,571.636719 592.359863,557.092346 
	C588.041077,552.541870 583.256104,548.433777 578.347656,544.061951 
	C569.159302,533.982666 559.936462,524.257996 551.662354,513.783875 
	C548.850891,510.224854 548.431335,504.776245 547.055969,499.830078 
z"/>
<path fill="#6F3AC6" opacity="1.000000" stroke="none" 
	d="
M879.919983,484.003479 
	C880.110718,494.096893 880.301514,504.190338 880.324707,514.657715 
	C840.839783,515.021118 801.521851,514.924683 762.205383,515.112183 
	C757.470398,515.134766 754.898254,513.648987 753.063965,509.371246 
	C751.371460,505.424347 749.126160,501.631378 746.585938,498.165192 
	C745.256287,496.350983 742.769714,495.384644 740.269470,493.723755 
	C732.733337,485.859802 724.060791,482.493896 713.817871,483.055695 
	C705.249146,483.525635 698.917603,488.144165 693.312012,494.109985 
	C691.539978,495.079681 689.127441,495.613983 688.116516,497.101074 
	C685.135620,501.485779 682.523560,506.154114 680.135925,510.897125 
	C678.682129,513.784912 676.910767,515.369446 673.578735,515.027588 
	C671.931030,514.858582 670.205444,514.746338 668.593323,515.039062 
	C652.118896,518.029907 640.502441,509.355774 629.439758,499.063202 
	C627.800781,497.538300 625.368347,496.866211 623.076294,496.026672 
	C616.294006,489.777222 609.738525,483.300659 603.019043,476.541443 
	C604.918701,476.730377 607.447632,476.601532 608.965210,477.777618 
	C615.518066,482.855957 622.764343,484.333252 630.928955,484.111023 
	C645.555969,483.712830 660.203796,483.849121 674.838928,484.049164 
	C685.335571,484.192688 695.614807,482.830872 706.008972,481.583160 
	C715.572998,480.435181 725.578064,481.420319 735.205811,482.770813 
	C745.146118,484.165192 745.407654,484.536835 744.334473,474.496674 
	C745.397949,475.038300 746.439453,475.776917 746.825256,476.770233 
	C749.654541,484.053986 755.646729,487.819458 762.365417,490.555115 
	C778.536804,497.139557 795.569397,490.824371 803.810669,475.503021 
	C804.536133,474.154205 805.919678,473.159302 806.929443,472.385132 
	C806.595398,473.729370 806.302490,474.681976 806.067505,475.648621 
	C804.077515,483.836121 804.205872,483.997223 812.680420,483.998322 
	C835.093628,484.001251 857.506775,484.001923 879.919983,484.003479 
z"/>
<path fill="#FFFFFF" opacity="1.000000" stroke="none" 
	d="
M757.119263,430.421692 
	C760.891602,428.784760 764.436829,427.177063 768.145752,426.174988 
	C777.817261,423.561859 786.228210,427.007904 794.702698,432.466125 
	C798.129761,438.542114 801.057983,444.268585 803.943115,450.442993 
	C803.414001,455.183258 802.928101,459.475616 802.268860,464.052338 
	C797.386169,475.655212 788.871521,482.149353 776.709290,482.837402 
	C764.563049,483.524475 755.334045,478.118469 749.343994,467.387665 
	C748.819885,466.448853 747.887634,465.737793 747.161255,464.489502 
	C746.797791,459.369232 746.418030,454.680420 746.038269,449.991577 
	C746.723633,441.892334 751.242432,435.967743 757.119263,430.421692 
z"/>
<path fill="#6D3AC1" opacity="1.000000" stroke="none" 
	d="
M745.684875,450.097687 
	C746.418030,454.680420 746.797791,459.369232 746.924805,464.745544 
	C748.406982,469.554779 749.520874,474.101624 751.995483,477.717072 
	C758.864075,487.752258 769.240051,490.539612 780.548584,488.683502 
	C791.950623,486.812042 799.376587,479.320282 803.432007,468.657135 
	C803.931824,467.342987 802.811646,465.412689 802.442200,463.767944 
	C802.928101,459.475616 803.414001,455.183258 804.292542,450.548584 
	C805.452026,451.579926 806.820740,452.927856 806.881042,454.331879 
	C807.133423,460.212097 806.993591,466.109131 806.997559,472.000000 
	C805.919678,473.159302 804.536133,474.154205 803.810669,475.503021 
	C795.569397,490.824371 778.536804,497.139557 762.365417,490.555115 
	C755.646729,487.819458 749.654541,484.053986 746.825256,476.770233 
	C746.439453,475.776917 745.397949,475.038300 744.330017,474.090881 
	C743.668274,467.612152 743.174988,461.225647 743.121887,454.835480 
	C743.109070,453.297821 744.555908,451.748016 745.684875,450.097687 
z"/>
<path fill="#7441C9" opacity="1.000000" stroke="none" 
	d="
M806.929443,472.385132 
	C806.993591,466.109131 807.133423,460.212097 806.881042,454.331879 
	C806.820740,452.927856 805.452026,451.579926 804.335693,450.100647 
	C801.057983,444.268585 798.129761,438.542114 795.062378,432.512634 
	C796.540955,428.480286 799.140808,431.194092 799.941406,432.177185 
	C805.672424,439.214752 813.454834,438.025940 821.009949,438.008118 
	C832.293457,437.981476 843.578430,437.902008 854.860168,438.045929 
	C859.974365,438.111176 865.082336,438.658722 870.624634,438.991241 
	C874.044922,453.713379 877.033752,468.431732 879.971313,483.576782 
	C857.506775,484.001923 835.093628,484.001251 812.680420,483.998322 
	C804.205872,483.997223 804.077515,483.836121 806.067505,475.648621 
	C806.302490,474.681976 806.595398,473.729370 806.929443,472.385132 
z"/>
<path fill="#6238A7" opacity="1.000000" stroke="none" 
	d="
M816.199097,653.088257 
	C807.696045,660.557129 798.858154,668.094177 789.713440,675.238708 
	C785.396729,678.611389 780.491821,681.231140 775.220337,683.904236 
	C772.053284,683.076843 769.520630,682.074219 766.985168,682.067139 
	C730.521729,681.965332 694.057922,681.997437 657.594238,681.997498 
	C628.123535,681.997498 598.652405,681.928955 569.183044,682.125854 
	C566.781982,682.141846 564.393005,683.971558 561.998474,684.958557 
	C546.995667,676.614441 533.611877,666.142090 521.259888,653.789551 
	C524.190186,652.990051 527.286926,652.065125 530.384521,652.062561 
	C622.875183,651.985657 715.365967,651.991882 807.856689,652.041809 
	C810.484131,652.043213 813.111206,652.663757 816.199097,653.088257 
z"/>
<path fill="#5B329C" opacity="1.000000" stroke="none" 
	d="
M562.280518,685.163208 
	C564.393005,683.971558 566.781982,682.141846 569.183044,682.125854 
	C598.652405,681.928955 628.123535,681.997498 657.594238,681.997498 
	C694.057922,681.997437 730.521729,681.965332 766.985168,682.067139 
	C769.520630,682.074219 772.053284,683.076843 774.854980,683.913940 
	C764.551514,689.568054 754.373840,695.977844 743.341370,700.100098 
	C694.239441,718.447388 644.841553,718.416016 595.478210,700.715149 
	C594.226929,700.266479 592.956055,699.872253 591.324951,699.434875 
	C581.491272,694.734009 572.026978,690.050903 562.280518,685.163208 
z"/>
<path fill="#FFFFFF" opacity="1.000000" stroke="none" 
	d="
M693.166504,494.438049 
	C698.917603,488.144165 705.249146,483.525635 713.817871,483.055695 
	C724.060791,482.493896 732.733337,485.859802 739.904175,493.706116 
	C741.911194,498.447083 743.747314,502.894135 745.712708,508.112091 
	C745.555054,512.589233 745.268188,516.295410 744.762878,520.273682 
	C744.113403,521.429565 743.657898,522.302429 743.254944,523.198914 
	C737.364258,536.305237 724.592957,543.029053 710.747192,539.974854 
	C699.741272,537.547119 692.954773,530.248047 688.992920,519.604492 
	C688.676514,515.463318 688.346375,511.733398 688.016174,508.003448 
	C689.684448,503.591003 691.352661,499.178558 693.166504,494.438049 
z"/>
<path fill="#6D3EB7" opacity="1.000000" stroke="none" 
	d="
M744.981323,520.001648 
	C745.268188,516.295410 745.555054,512.589233 745.887146,508.443024 
	C746.915894,509.581726 748.511719,511.060364 748.788635,512.754578 
	C751.692383,530.518066 740.906494,546.538025 723.498230,550.624939 
	C704.882874,554.995239 684.973206,539.437988 685.104126,520.355225 
	C685.131958,516.299438 683.180603,511.634094 687.656860,508.114258 
	C688.346375,511.733398 688.676514,515.463318 688.765015,519.905090 
	C688.670715,522.871704 688.368103,525.271729 689.041016,527.356995 
	C692.535767,538.186951 703.207764,546.280701 713.631409,547.054260 
	C730.713379,548.321777 739.517090,539.330322 743.869873,529.855469 
	C745.180420,527.002686 744.661926,523.309753 744.981323,520.001648 
z"/>
<path fill="#6D3EB7" opacity="1.000000" stroke="none" 
	d="
M802.268860,464.052338 
	C802.811646,465.412689 803.931824,467.342987 803.432007,468.657135 
	C799.376587,479.320282 791.950623,486.812042 780.548584,488.683502 
	C769.240051,490.539612 758.864075,487.752258 751.995483,477.717072 
	C749.520874,474.101624 748.406982,469.554779 746.908569,465.176941 
	C747.887634,465.737793 748.819885,466.448853 749.343994,467.387665 
	C755.334045,478.118469 764.563049,483.524475 776.709290,482.837402 
	C788.871521,482.149353 797.386169,475.655212 802.268860,464.052338 
z"/>
<path fill="#673CAD" opacity="1.000000" stroke="none" 
	d="
M744.762817,520.273682 
	C744.661926,523.309753 745.180420,527.002686 743.869873,529.855469 
	C739.517090,539.330322 730.713379,548.321777 713.631409,547.054260 
	C703.207764,546.280701 692.535767,538.186951 689.041016,527.356995 
	C688.368103,525.271729 688.670715,522.871704 688.751221,520.316284 
	C692.954773,530.248047 699.741272,537.547119 710.747192,539.974854 
	C724.592957,543.029053 737.364258,536.305237 743.254944,523.198914 
	C743.657898,522.302429 744.113403,521.429565 744.762817,520.273682 
z"/>
</svg>